<svg xmlns="http://www.w3.org/2000/svg" viewBox="0 0 1200 675" role="img" aria-labelledby="title desc">
  <title id="title">Instructional design artifact suite</title>
  <desc id="desc">A clean artifact suite showing ADDIE, QA, facilitator guide, job aid, and storyboard documents.</desc>
  <rect width="1200" height="675" fill="#111315"/>
  <text x="98" y="118" fill="#f8fafc" font-family="Arial, sans-serif" font-size="38" font-weight="700">Instructional systems artifact suite</text>
  <text x="98" y="158" fill="#a8b3c1" font-family="Arial, sans-serif" font-size="21">Process evidence across analysis, design, QA, facilitation, and performance support</text>
  <g font-family="Arial, sans-serif">
    <g><rect x="112" y="230" width="176" height="240" rx="12" fill="#f8fafc"/><rect x="132" y="270" width="136" height="12" fill="#334155"/><rect x="132" y="304" width="116" height="10" fill="#94a3b8"/><rect x="132" y="332" width="126" height="10" fill="#94a3b8"/><text x="132" y="510" fill="#cbd5e1" font-size="18">ADDIE</text></g>
    <g><rect x="330" y="206" width="176" height="240" rx="12" fill="#e0f2fe"/><rect x="350" y="246" width="136" height="12" fill="#0369a1"/><rect x="350" y="282" width="116" height="10" fill="#38bdf8"/><rect x="350" y="310" width="126" height="10" fill="#38bdf8"/><text x="350" y="486" fill="#cbd5e1" font-size="18">QA</text></g>
    <g><rect x="548" y="230" width="176" height="240" rx="12" fill="#fef3c7"/><rect x="568" y="270" width="136" height="12" fill="#92400e"/><rect x="568" y="304" width="116" height="10" fill="#f59e0b"/><rect x="568" y="332" width="126" height="10" fill="#f59e0b"/><text x="568" y="510" fill="#cbd5e1" font-size="18">Facilitator</text></g>
    <g><rect x="766" y="206" width="176" height="240" rx="12" fill="#dcfce7"/><rect x="786" y="246" width="136" height="12" fill="#166534"/><rect x="786" y="282" width="116" height="10" fill="#22c55e"/><rect x="786" y="310" width="126" height="10" fill="#22c55e"/><text x="786" y="486" fill="#cbd5e1" font-size="18">Job aid</text></g>
    <g><rect x="984" y="230" width="104" height="240" rx="12" fill="#ede9fe"/><rect x="1002" y="268" width="68" height="54" fill="#7c3aed"/><rect x="1002" y="340" width="68" height="54" fill="#a78bfa"/><text x="984" y="510" fill="#cbd5e1" font-size="18">Storyboard</text></g>
  </g>
  <text x="98" y="596" fill="#cbd5e1" font-family="Arial, sans-serif" font-size="18">Process artifacts make analysis, QA, facilitation, job support, and storyboarding visible.</text>
</svg>
